<svg width="147" height="52" viewBox="0 0 147 52" fill="none" xmlns="http://www.w3.org/2000/svg">
<path d="M4 43.1911H9.08932V32.4644C10.6161 33.6389 12.2603 34.187 14.1786 34.187C16.9973 34.187 19.6986 32.9342 21.382 30.9768C22.8696 29.2543 23.77 26.9053 23.77 24.3215C23.77 18.7233 19.6203 14.4169 14.4527 14.4169C12.2995 14.4169 10.3812 15.1216 8.89357 16.3352V14.8084H4V43.1911ZM9.08932 21.4637C10.1463 20.0543 11.8297 19.1148 13.7871 19.1148C16.7624 19.1148 18.6807 21.5811 18.6807 24.3215C18.6807 27.2968 16.5275 29.4891 13.6697 29.4891C11.7514 29.4891 10.068 28.5496 9.08932 27.1402V21.4637Z" fill="#269B74"/>
<path d="M38.6557 14.5735C38.1076 14.4952 37.677 14.4169 36.9331 14.4169C34.6234 14.4169 32.5485 15.3174 31.4132 16.7267V14.8084H26.5196V33.7955H31.6089V21.8552C32.2353 20.7199 33.997 19.1148 36.2285 19.1148C36.9723 19.1148 37.7161 19.1931 38.0684 19.3105L38.6557 14.5735Z" fill="#269B74"/>
<path d="M82.483 14.8084H77.5895V16.3352C76.1018 15.1216 74.1835 14.4169 72.0304 14.4169C66.8628 14.4169 62.713 18.7233 62.713 24.3215C62.713 26.9053 63.6134 29.2543 65.1011 30.9768C66.7845 32.9342 69.4857 34.187 72.3044 34.187C74.2227 34.187 75.8669 33.6389 77.3937 32.4644V33.0908C77.3937 35.518 77.0022 36.6925 76.2193 37.5538C75.358 38.5716 73.9878 39.0806 72.3436 39.0806C69.2117 39.0806 67.45 37.4363 66.4321 36.3401L63.2219 39.6678C65.1011 41.8601 68.6245 43.5826 72.3436 43.5826C75.9844 43.5826 79.038 42.1733 80.7605 39.7852C81.8958 38.1801 82.483 36.1444 82.483 32.7385V14.8084ZM77.3937 27.1402C76.415 28.5496 74.7316 29.4891 72.8133 29.4891C69.9555 29.4891 67.8023 27.2968 67.8023 24.3215C67.8023 21.5811 69.7206 19.1148 72.6959 19.1148C74.6533 19.1148 76.3367 20.0543 77.3937 21.4637V27.1402Z" fill="#269B74"/>
<path d="M98.6361 14.5735C98.088 14.4952 97.6573 14.4169 96.9135 14.4169C94.6038 14.4169 92.5289 15.3174 91.3936 16.7267V14.8084H86.5V33.7955H91.5893V21.8552C92.2157 20.7199 93.9774 19.1148 96.2088 19.1148C96.9527 19.1148 97.6965 19.1931 98.0488 19.3105L98.6361 14.5735Z" fill="#269B74"/>
<path d="M113.532 27.1402C112.554 28.5496 110.87 29.4891 108.952 29.4891C106.094 29.4891 103.941 27.2968 103.941 24.3215C103.941 21.5811 105.859 19.1148 108.835 19.1148C110.792 19.1148 112.475 20.0543 113.532 21.4637V27.1402ZM118.622 14.8084H113.728V16.3352C112.24 15.1216 110.322 14.4169 108.169 14.4169C103.001 14.4169 98.8517 18.7233 98.8517 24.3215C98.8517 26.9053 99.7912 29.2543 101.279 30.9768C102.962 32.9342 105.624 34.187 108.443 34.187C110.361 34.187 112.162 33.5997 113.728 32.2687V33.7955H118.622V14.8084Z" fill="#269B74"/>
<path d="M136.052 27.1402C135.073 28.5496 133.39 29.4891 131.472 29.4891C128.614 29.4891 126.461 27.2968 126.461 24.3215C126.461 21.5811 128.379 19.1148 131.354 19.1148C133.312 19.1148 134.995 20.0543 136.052 21.4637V27.1402ZM141.141 33.7955V6H136.052V16.1786C134.564 15.0042 132.764 14.4169 130.689 14.4169C125.521 14.4169 121.371 18.7233 121.371 24.3215C121.371 26.9053 122.311 29.2543 123.799 30.9768C125.482 32.9342 128.144 34.187 130.963 34.187C132.881 34.187 134.682 33.5997 136.248 32.2687V33.7955H141.141Z" fill="#269B74"/>
<path fill-rule="evenodd" clip-rule="evenodd" d="M59.8184 24.2632C59.8184 29.7911 55.3372 34.2724 49.8092 34.2724C44.2813 34.2724 39.8 29.7911 39.8 24.2632C39.8 18.7353 44.2813 14.254 49.8092 14.254C55.3372 14.254 59.8184 18.7353 59.8184 24.2632ZM51.686 22.3865H48.1411V19.4671H54.6054V25.9314H51.686V22.3865ZM44.804 26.557H47.5148V29.2678H50.4342V23.6377H44.804V26.557Z" fill="#269B74"/>
</svg>
